<svg xmlns="http://www.w3.org/2000/svg" viewBox="0 0 1201 655.432">
    <defs>
        <style>
            .cls-1{fill:#fff}.cls-2{fill:none}.cls-2,.cls-3{stroke:#707070}.cls-3,.cls-6{fill:url(#linear-gradient)}.cls-4{clip-path:url(#clip-path)}.cls-5{clip-path:url(#clip-path-2)}.cls-7{clip-path:url(#clip-path-3)}.cls-8{opacity:.25}.cls-9{fill:#798cff}.cls-10{opacity:.2;fill:url(#linear-gradient-3)}
        </style>
        <linearGradient id="linear-gradient" x1="-.017" x2="1.309" y1=".602" y2=".015" gradientUnits="objectBoundingBox">
            <stop offset="0" stop-color="#0018a2"/>
            <stop offset="1" stop-color="#5c73f7"/>
        </linearGradient>
        <clipPath id="clip-path">
            <path id="Path_6484" d="M600.492 946.932l-275.46-49.162-.141-.022c-1.836-.274-6.874-1.069-14-2.522-7.938-1.612-20.236-4.4-33.747-8.556a248.448 248.448 0 0 1-40.326-16c-14.474-7.441-25.876-15.8-33.889-24.857C181.938 822.078 81.262 682.549.5 569.679V291.5h1201v277.385C1120.51 682.083 1019.558 822 998.571 845.717c-8.006 9.052-19.408 17.417-33.889 24.862a248.571 248.571 0 0 1-40.326 16c-13.482 4.141-25.79 6.94-33.741 8.558-7.487 1.523-12.653 2.32-14.058 2.528l-.087.013-275.978 49.253z" class="cls-1" data-name="Path 6484" transform="translate(23466.498 -19445)"/>
        </clipPath>
        <clipPath id="clip-path-2">
            <path id="Path_6483" d="M-81-17702.473h1201v-674.727H-81z" class="cls-2" data-name="Path 6483" transform="translate(-14 -2501)"/>
        </clipPath>
        <clipPath id="clip-path-3">
            <path id="Path_6482" d="M-9303 5883.292l703.311-76.214s509.234-150.635 537.666-195.313 66.95-581.413 66.95-581.413 40.617-108.311-90.709-155.7c2.708-2.708-1217.217 0-1217.217 0z" class="cls-3" data-name="Path 6482" transform="translate(9302.999 -4873.452)"/>
        </clipPath>
        <linearGradient id="linear-gradient-3" x1=".719" x2="-.135" y1=".43" y2=".362" gradientUnits="objectBoundingBox">
            <stop offset="0" stop-color="#0163e2"/>
            <stop offset="1" stop-color="#00158f" stop-opacity="0"/>
        </linearGradient>
    </defs>
    <g id="Mask_Group_57" class="cls-4" data-name="Mask Group 57" transform="translate(-23467 19153.5)">
        <g id="Mask_Group_56" class="cls-5" data-name="Mask Group 56" transform="translate(23562 1725.199)">
            <g id="Group_3300" data-name="Group 3300" transform="rotate(9 136536.281 -10880.084)">
                <g id="Group_3299" data-name="Group 3299" transform="translate(0 313.033)">
                    <path id="Path_6464" d="M-9303 5883.292l741.326-8.628s571.112-104.279 599.544-148.957-32.944-695.355-32.944-695.355 40.617-108.311-90.709-155.7c2.708-2.708-1217.217 0-1217.217 0z" class="cls-6" data-name="Path 6464" transform="translate(9303.634 -4873.452)"/>
                    <g id="Group_3298" class="cls-7" data-name="Group 3298">
                        <g id="Group_3297" class="cls-8" data-name="Group 3297" transform="translate(-208 37.652)">
                            <g id="Group_3258" data-name="Group 3258" transform="translate(15.626 768.844)">
                                <path id="Path_6465" d="M70.912 317.317H26.9l-22-38.268 22-37.949h44.012l22 37.949zm-36.673-12.756h29.339l14.669-25.193-14.669-25.193H34.239l-14.67 24.874z" class="cls-9" data-name="Path 6465" transform="translate(-4.9 -241.1)"/>
                            </g>
                            <g id="Group_3259" data-name="Group 3259" transform="translate(680.214 695.497)">
                                <path id="Path_6466" d="M300.36 264.341L273.572 299.1l-43.689-5.74-16.583-40.5 26.788-34.76 43.689 5.74zm-32.209 21.366l17.858-23.28-11.161-27.106-29.02-3.827-17.858 23.28 11.161 27.107z" class="cls-9" data-name="Path 6466" transform="translate(-213.3 -218.1)"/>
                            </g>
                            <g id="Group_3260" data-name="Group 3260" transform="translate(1304.94 449.625)">
                                <path id="Path_6467" d="M461.819 226.465l-42.095-12.437L409.2 171.3l31.89-30.3 42.1 12.437 10.523 42.733zm-31.571-22.642l28.063 8.291 21.047-20.091-7.016-28.7-28.063-8.291-21.047 20.091z" class="cls-9" data-name="Path 6467" transform="translate(-409.2 -141)"/>
                            </g>
                            <g id="Group_3261" data-name="Group 3261" transform="translate(87.06 557.413)">
                                <path id="Path_6468" d="M27.3 259.946l6.378-85.146 70.8 48.154zm17.54-62.186l-2.871 41.14 36.993-17.86z" class="cls-9" data-name="Path 6468" transform="translate(-27.3 -174.8)"/>
                            </g>
                            <g id="Group_3262" data-name="Group 3262" transform="translate(1102.438 842.51)">
                                <path id="Path_6469" d="M345.7 348.709l12.756-84.509 66.65 53.256zm22.323-60.591l-6.378 40.819 38.587-14.988z" class="cls-9" data-name="Path 6469" transform="translate(-345.7 -264.2)"/>
                            </g>
                            <g id="Group_3263" data-name="Group 3263" transform="translate(1359.153 200.564)">
                                <path id="Path_6470" d="M502.1 148.046l-75.9-39.225L498.272 62.9zm-50.386-40.5l36.673 19.134-1.913-41.138z" class="cls-9" data-name="Path 6470" transform="translate(-426.2 -62.9)"/>
                            </g>
                            <g id="Group_3264" data-name="Group 3264" transform="translate(685.954 27.401)">
                                <path id="Path_6471" d="M291 93.746l-75.9-39.224L287.171 8.6zm-50.386-40.5l36.672 19.134-1.913-41.138z" class="cls-9" data-name="Path 6471" transform="translate(-215.1 -8.6)"/>
                            </g>
                            <g id="Group_3265" data-name="Group 3265" transform="translate(234.392 255.733)">
                                <path id="Path_6472" d="M147.485 165.665L73.5 122.933 147.485 80.2zm-48.473-42.732l35.717 20.729V102.2z" class="cls-9" data-name="Path 6472" transform="translate(-73.5 -80.2)"/>
                            </g>
                            <g id="Group_3266" data-name="Group 3266" transform="translate(514.386 216.827)">
                                <path id="Path_6473" d="M239.431 118.067l-78.131 34.76L170.229 68zM176.288 132.1l37.63-16.583-33.484-24.237z" class="cls-9" data-name="Path 6473" transform="translate(-161.3 -68)"/>
                            </g>
                            <g id="Group_3267" data-name="Group 3267" transform="translate(440.401 588.027)">
                                <path id="Path_6474" d="M138.1 231.6l14.669-47.2 72.709 22.323-14.669 47.2zm22.961-31.252l-7.016 22.642 48.473 14.988 7.016-22.642z" class="cls-9" data-name="Path 6474" transform="translate(-138.1 -184.4)"/>
                            </g>
                            <g id="Group_3268" data-name="Group 3268" transform="translate(1417.512 829.116)">
                                <path id="Path_6475" d="M469.055 340.682L444.5 297.949 510.512 260l24.555 42.733zm-7.335-37.949l11.8 20.728 43.689-25.193-11.8-20.728z" class="cls-9" data-name="Path 6475" transform="translate(-444.5 -260)"/>
                            </g>
                            <g id="Group_3269" data-name="Group 3269" transform="translate(210.474 97.878)">
                                <path id="Path_6476" d="M90.555 111.382L66 68.649 132.012 30.7l24.555 42.733zm-7.334-37.949l11.8 20.729 43.689-25.193-11.8-20.729z" class="cls-9" data-name="Path 6476" transform="translate(-66 -30.7)"/>
                            </g>
                            <g id="Group_3270" data-name="Group 3270" transform="translate(173.482 835.494)">
                                <path id="Path_6477" d="M82.463 350.973L54.4 280.177 100.322 262l28.063 70.8zm-11.48-63.461L89.8 334.39l22-8.929-18.813-46.878z" class="cls-9" data-name="Path 6477" transform="translate(-54.4 -262)"/>
                            </g>
                            <g id="Group_3271" data-name="Group 3271" transform="translate(1513.5 373.407)">
                                <path id="Path_6478" d="M512.549 193a37.949 37.949 0 1 1 37.951-37.951c.317 20.729-16.9 37.951-37.951 37.951zm0-63.461a25.193 25.193 0 1 0 25.193 25.193c.319-13.714-11.161-25.195-25.193-25.195z" class="cls-9" data-name="Path 6478" transform="translate(-474.6 -117.1)"/>
                            </g>
                            <g id="Group_3272" data-name="Group 3272" transform="translate(1110.092 221.292)">
                                <path id="Path_6479" d="M386.049 145.3A37.949 37.949 0 1 1 424 107.349a38.04 38.04 0 0 1-37.951 37.951zm0-63.461a25.193 25.193 0 1 0 25.193 25.193 25.246 25.246 0 0 0-25.193-25.195z" class="cls-9" data-name="Path 6479" transform="translate(-348.1 -69.4)"/>
                            </g>
                            <g id="Group_3273" data-name="Group 3273" transform="translate(1091.914 660.099)">
                                <path id="Path_6480" d="M380.349 282.9a37.949 37.949 0 1 1 37.951-37.951 38.04 38.04 0 0 1-37.951 37.951zm0-63.461a25.193 25.193 0 1 0 25.193 25.193 25.246 25.246 0 0 0-25.193-25.195z" class="cls-9" data-name="Path 6480" transform="translate(-342.4 -207)"/>
                            </g>
                            <g id="Group_3274" data-name="Group 3274" transform="translate(0 162.296)">
                                <path id="Path_6481" d="M37.949 126.8a37.949 37.949 0 1 1 0-75.9A38.248 38.248 0 0 1 75.9 88.849C76.217 109.9 59 126.8 37.949 126.8zm0-63.142a25.193 25.193 0 1 0 25.193 25.191 25.246 25.246 0 0 0-25.193-25.193z" class="cls-9" data-name="Path 6481" transform="translate(0 -50.9)"/>
                            </g>
                            <g id="Group_3275" data-name="Group 3275" transform="translate(444.252 68.625)">
                                <path id="Rectangle_793" d="M0 0h12.756v78.131H0z" class="cls-9" data-name="Rectangle 793" transform="rotate(-83.91 7.056 6.344)"/>
                            </g>
                            <g id="Group_3276" data-name="Group 3276" transform="translate(938.586 492.377)">
                                <path id="Rectangle_794" d="M0 0h12.756v78.131H0z" class="cls-9" data-name="Rectangle 794" transform="rotate(-83.91 7.056 6.344)"/>
                            </g>
                            <g id="Group_3277" data-name="Group 3277" transform="translate(58.528 358.146)">
                                <path id="Rectangle_795" d="M0 0h78.131v12.756H0z" class="cls-9" data-name="Rectangle 795" transform="rotate(-52.84 62.63 31.119)"/>
                            </g>
                            <g id="Group_3278" data-name="Group 3278" transform="translate(342.151 741.844)">
                                <path id="Rectangle_796" d="M0 0h78.131v12.756H0z" class="cls-9" data-name="Rectangle 796" transform="rotate(-52.84 62.63 31.119)"/>
                            </g>
                            <g id="Group_3279" data-name="Group 3279" transform="translate(1546.611)">
                                <path id="Rectangle_797" d="M0 0h78.131v12.756H0z" class="cls-9" data-name="Rectangle 797" transform="rotate(-52.84 62.638 31.123)"/>
                            </g>
                            <g id="Group_3282" data-name="Group 3282" transform="translate(1027.483 46.783)">
                                <g id="Group_3280" data-name="Group 3280" transform="translate(.012)">
                                    <path id="Rectangle_798" d="M0 0h12.756v78.131H0z" class="cls-9" data-name="Rectangle 798" transform="rotate(-45 10.888 4.51)"/>
                                </g>
                                <g id="Group_3281" data-name="Group 3281" transform="translate(0 .211)">
                                    <path id="Rectangle_799" d="M0 0h78.131v12.756H0z" class="cls-9" data-name="Rectangle 799" transform="rotate(-45 66.688 27.623)"/>
                                </g>
                            </g>
                            <g id="Group_3285" data-name="Group 3285" transform="translate(473.579 806.87)">
                                <g id="Group_3283" data-name="Group 3283" transform="translate(10.202)">
                                    <path id="Rectangle_800" d="M0 0h12.756v78.131H0z" class="cls-9" data-name="Rectangle 800" transform="rotate(-31.931 11.792 3.374)"/>
                                </g>
                                <g id="Group_3284" data-name="Group 3284" transform="translate(0 10.442)">
                                    <path id="Rectangle_801" d="M0 0h78.131v12.756H0z" class="cls-9" data-name="Rectangle 801" transform="rotate(-31.931 72.22 20.662)"/>
                                </g>
                            </g>
                            <g id="Group_3288" data-name="Group 3288" transform="translate(1462.828 580.13)">
                                <g id="Group_3286" data-name="Group 3286" transform="translate(10.255)">
                                    <path id="Rectangle_802" d="M0 0h12.756v78.131H0z" class="cls-9" data-name="Rectangle 802" transform="rotate(-31.931 11.792 3.374)"/>
                                </g>
                                <g id="Group_3287" data-name="Group 3287" transform="translate(0 10.369)">
                                    <path id="Rectangle_803" d="M0 0h78.131v12.756H0z" class="cls-9" data-name="Rectangle 803" transform="rotate(-31.931 72.22 20.662)"/>
                                </g>
                            </g>
                            <g id="Group_3291" data-name="Group 3291" transform="translate(831.118 848.339)">
                                <g id="Group_3289" data-name="Group 3289" transform="translate(10.206)">
                                    <path id="Rectangle_804" d="M0 0h12.756v78.131H0z" class="cls-9" data-name="Rectangle 804" transform="rotate(-31.931 11.792 3.374)"/>
                                </g>
                                <g id="Group_3290" data-name="Group 3290" transform="translate(0 10.394)">
                                    <path id="Rectangle_805" d="M0 0h78.131v12.756H0z" class="cls-9" data-name="Rectangle 805" transform="rotate(-31.931 72.22 20.662)"/>
                                </g>
                            </g>
                            <g id="Group_3294" data-name="Group 3294" transform="translate(7.957 23.006)">
                                <g id="Group_3292" data-name="Group 3292" transform="translate(10.23)">
                                    <path id="Rectangle_806" d="M0 0h12.756v78.131H0z" class="cls-9" data-name="Rectangle 806" transform="rotate(-31.931 11.792 3.374)"/>
                                </g>
                                <g id="Group_3293" data-name="Group 3293" transform="translate(0 10.498)">
                                    <path id="Rectangle_807" d="M0 0h78.131v12.756H0z" class="cls-9" data-name="Rectangle 807" transform="rotate(-31.931 72.22 20.662)"/>
                                </g>
                            </g>
                            <g id="Group_3295" data-name="Group 3295" transform="translate(1290.41 743.893)">
                                <path id="Rectangle_808" d="M0 0h78.131v12.756H0z" class="cls-9" data-name="Rectangle 808" transform="rotate(-8.789 77.672 5.969)"/>
                            </g>
                            <g id="Group_3296" data-name="Group 3296" transform="translate(1250.61 99.081)">
                                <path id="Rectangle_809" d="M0 0h78.131v12.756H0z" class="cls-9" data-name="Rectangle 809" transform="rotate(-8.789 77.672 5.969)"/>
                            </g>
                        </g>
                    </g>
                </g>
                <path id="Union_33" d="M677.649 336.708H0V0h677.649a168.354 168.354 0 1 1 0 336.708z" class="cls-10" data-name="Union 33" transform="rotate(118 403.62 417.85)"/>
            </g>
        </g>
    </g>
</svg>
